<svg xmlns="http://www.w3.org/2000/svg" viewBox="0 0 64 64" width="64" height="64" role="img" aria-label="KROK">
  <defs>
    <linearGradient id="kg" x1="0" y1="1" x2="1" y2="0">
      <stop offset="0" stop-color="#10b981"/>
      <stop offset="0.45" stop-color="#0891b2"/>
      <stop offset="1" stop-color="#2f6fe0"/>
    </linearGradient>
  </defs>
  <path fill="url(#kg)" fill-rule="evenodd" d="M21 4H43A17 17 0 0 1 60 21V43A17 17 0 0 1 43 60H21A17 17 0 0 1 4 43V21A17 17 0 0 1 21 4ZM27 19H37A8 8 0 0 1 45 27V37A8 8 0 0 1 37 45H27A8 8 0 0 1 19 37V27A8 8 0 0 1 27 19Z"/>
  <path d="M25 32.5L30.5 38L39.5 26.5" fill="none" stroke="#0f172a" stroke-width="6.5" stroke-linecap="round" stroke-linejoin="round"/>
</svg>
